<svg xmlns="http://www.w3.org/2000/svg" viewBox="0 0 300 300" width="300" height="300">
  <rect width="300" height="300" rx="16" fill="#ffffff"/>
  <g transform="translate(150,150) scale(0.52)">
    <path d="M-10,0 C-48,-58 -108,-138 -72,-196 C-38,-186 -18,-108 10,-38 C18,-14 10,0 -10,0" fill="#0D4F4F"/>
    <path d="M-10,0 C-48,-58 -108,-138 -72,-196 C-38,-186 -18,-108 10,-38 C18,-14 10,0 -10,0" fill="#0E7C7B" transform="rotate(51.43)"/>
    <path d="M-10,0 C-48,-58 -108,-138 -72,-196 C-38,-186 -18,-108 10,-38 C18,-14 10,0 -10,0" fill="#1CBA93" transform="rotate(102.86)"/>
    <path d="M-10,0 C-48,-58 -108,-138 -72,-196 C-38,-186 -18,-108 10,-38 C18,-14 10,0 -10,0" fill="#22D3A7" transform="rotate(154.29)"/>
    <path d="M-10,0 C-48,-58 -108,-138 -72,-196 C-38,-186 -18,-108 10,-38 C18,-14 10,0 -10,0" fill="#33BBFF" transform="rotate(205.71)"/>
    <path d="M-10,0 C-48,-58 -108,-138 -72,-196 C-38,-186 -18,-108 10,-38 C18,-14 10,0 -10,0" fill="#5B9BF5" transform="rotate(257.14)"/>
    <path d="M-10,0 C-48,-58 -108,-138 -72,-196 C-38,-186 -18,-108 10,-38 C18,-14 10,0 -10,0" fill="#4A6CF7" transform="rotate(308.57)"/>
  </g>
</svg>
